<?xml version="1.0" standalone="no"?>
<!DOCTYPE svg PUBLIC "-//W3C//DTD SVG 20010904//EN"
 "http://www.w3.org/TR/2001/REC-SVG-20010904/DTD/svg10.dtd">
<svg version="1.0" xmlns="http://www.w3.org/2000/svg"
 width="64.000000pt" height="64.000000pt" viewBox="0 0 64.000000 64.000000"
 preserveAspectRatio="xMidYMid meet">
<metadata>
Created by potrace 1.11, written by Peter Selinger 2001-2013
</metadata>
<g transform="translate(0.000000,64.000000) scale(0.100000,-0.100000)"
fill="#000000" stroke="none">
<path d="M232 627 c-40 -13 -206 -171 -221 -210 -25 -66 -7 -151 43 -196 25
-23 25 -25 9 -44 -17 -18 -15 -19 112 -13 72 3 137 5 145 6 8 0 47 -3 86 -6
63 -5 76 -3 120 19 71 36 107 93 107 168 0 69 -26 116 -87 159 -24 16 -51 41
-60 55 -39 60 -166 91 -254 62z"/>
<path d="M440 80 c0 -44 2 -50 21 -50 15 0 19 4 15 16 -3 9 -6 31 -6 50 0 24
-5 34 -15 34 -11 0 -15 -12 -15 -50z"/>
<path d="M91 65 c25 -42 41 -44 59 -8 l13 28 6 -25 c6 -23 12 -25 69 -27 62
-2 62 -2 56 22 -4 15 -2 25 5 25 6 0 11 -11 11 -25 0 -16 6 -25 15 -25 10 0
15 11 15 35 0 35 0 35 -44 35 -41 0 -43 -1 -40 -27 4 -27 3 -27 -4 -3 -7 22
-14 25 -64 27 -44 1 -56 -1 -52 -12 3 -7 1 -16 -5 -20 -7 -3 -11 2 -11 14 0
16 -6 21 -25 21 l-24 0 20 -35z m136 -11 c-3 -3 -12 -4 -19 -1 -8 3 -5 6 6 6
11 1 17 -2 13 -5z"/>
<path d="M350 65 c0 -28 4 -35 20 -35 17 0 19 5 14 25 -4 15 -2 25 5 25 6 0
11 -11 11 -25 0 -16 6 -25 15 -25 10 0 15 11 15 35 0 34 -1 35 -40 35 -39 0
-40 -1 -40 -35z"/>
<path d="M480 84 c0 -8 5 -25 11 -36 8 -16 8 -22 -2 -29 -7 -4 -10 -11 -6 -15
9 -9 47 25 47 41 0 7 7 18 15 25 21 17 19 30 -5 30 -14 0 -20 -7 -20 -21 0
-12 -4 -17 -11 -14 -6 4 -8 13 -5 21 3 8 -1 14 -9 14 -8 0 -15 -7 -15 -16z"/>
</g>
</svg>
